<?xml version="1.0" encoding="utf-8"?>
<!-- Generator: Adobe Illustrator 26.0.3, SVG Export Plug-In . SVG Version: 6.00 Build 0)  -->
<svg version="1.1" id="Layer_1" xmlns="http://www.w3.org/2000/svg" xmlns:xlink="http://www.w3.org/1999/xlink" x="0px" y="0px"
	 viewBox="0 0 40 39" style="enable-background:new 0 0 40 39;" xml:space="preserve">
<style type="text/css">
	.st0{fill:#613D2B;stroke:#613D2B;stroke-miterlimit:10;}
</style>
<g>
	<path class="st0" d="M22.8,16.9c-5.6-5.3-13.4-7-17.7-3.6l0.5,1.3c1.5,4.3,5.4,7.5,10,8.4c5.4,1,9.9,4.7,11.7,9.7
		c1-1.7,1.3-3.9,0.9-6.3C27.6,22.8,25.5,19.4,22.8,16.9z"/>
	<path class="st0" d="M15.1,25.1c-5.5-1-10-4.8-11.8-9.9C1,19.6,2.9,26.4,7.9,31.1c5.5,5.3,13.6,6.8,17.7,3.6l-0.4-1
		C23.7,29.3,19.8,26,15.1,25.1z"/>
	<path class="st0" d="M27,8c1.8-1.9,4.1-3.4,6.7-4.2l0.1,0c-4.4-2.4-11.2-0.8-16.4,4.2c-0.7,0.6-1.3,1.3-1.9,2
		c2.9,0.8,5.7,2.4,8.2,4.5C24.1,12,25.3,9.8,27,8z"/>
	<path class="st0" d="M34.4,5.9c-4.5,1.5-7.7,4.9-8.6,9.4c-0.1,0.4-0.2,0.7-0.3,1.1c2.1,2.3,3.7,4.9,4.5,7.6
		c0.7-0.5,1.5-1.1,2.1-1.8c5.6-5.4,7.1-12.7,3.6-16.7L34.4,5.9z"/>
	<path d="M36.9,3.3C36.9,3.3,36.9,3.3,36.9,3.3c-5.2-4.9-14.6-3.4-21.3,3c-1,1-1.9,2-2.7,3.1c-4-0.6-7.6,0.4-10,2.7c0,0,0,0,0,0
		c0,0,0,0,0,0C-2,16.8-0.5,26.3,6.2,32.7c6.8,6.4,16.7,7.8,21.5,3.2c0,0,0,0,0,0c0,0,0,0,0,0c2.4-2.3,3.4-5.7,2.8-9.5
		c1.1-0.8,2.2-1.6,3.2-2.6C40.6,17.3,42.1,8.2,36.9,3.3C36.9,3.3,36.9,3.3,36.9,3.3z M17.2,7.9c5.2-5,12.1-6.5,16.4-4.2l-0.1,0
		C31,4.6,28.7,6.1,27,8c-1.7,1.8-2.8,4.1-3.4,6.5c-2.5-2.1-5.3-3.7-8.2-4.5C15.9,9.2,16.5,8.6,17.2,7.9z M7.9,31.1
		C2.9,26.4,1,19.6,3.3,15.3c1.8,5,6.3,8.8,11.8,9.9c4.7,0.9,8.6,4.2,10.1,8.5l0.4,1C21.4,37.9,13.4,36.4,7.9,31.1z M27.3,32.7
		c-1.8-5-6.3-8.7-11.7-9.7c-4.7-0.9-8.5-4.1-10-8.4l-0.5-1.3c4.3-3.4,12.1-1.7,17.7,3.6c2.7,2.6,4.8,5.9,5.4,9.5
		C28.6,28.8,28.3,31,27.3,32.7z M32.1,22.1c-0.7,0.6-1.4,1.2-2.1,1.8c-0.8-2.7-2.4-5.3-4.5-7.6c0.1-0.4,0.2-0.7,0.3-1.1
		c0.9-4.5,4.1-7.9,8.6-9.4l1.4-0.5C39.3,9.5,37.8,16.8,32.1,22.1z"/>
</g>
</svg>
